<svg width="677" height="689" viewBox="0 0 677 689" fill="none" xmlns="http://www.w3.org/2000/svg">
  <path id="02a452e911d90e8203fd872eb0c1486a" opacity="0.8" fill-rule="evenodd" clip-rule="evenodd" d="M622.427 340.665C623.656 416.283 708.39 497.492 656.266 560.388C604.532 622.813 481.983 597.17 392.278 618.378C305.13 638.982 228.225 696.119 138.791 682.73C45.2163 668.721 -32.9018 612.198 -83.0087 547.223C-131.174 484.765 -137.261 408.665 -128.861 335.657C-121.044 267.705 -100.988 195.238 -37.3184 150.085C22.2465 107.843 116.159 133.191 190.026 109.51C273.946 82.6062 328.823 0.261408 419.202 3.72999C513.542 7.35061 608.057 58.8812 649.224 127.133C689.1 193.245 621.234 267.316 622.427 340.665Z" fill="#B1E2FE"></path>
</svg>